<?xml version="1.0" encoding="UTF-8" standalone="no"?>
<!-- Generator: Adobe Illustrator 16.0.3, SVG Export Plug-In . SVG Version: 6.00 Build 0)  -->

<svg
   xmlns:dc="http://purl.org/dc/elements/1.1/"
   xmlns:cc="http://creativecommons.org/ns#"
   xmlns:rdf="http://www.w3.org/1999/02/22-rdf-syntax-ns#"
   xmlns:svg="http://www.w3.org/2000/svg"
   xmlns="http://www.w3.org/2000/svg"
   xmlns:sodipodi="http://sodipodi.sourceforge.net/DTD/sodipodi-0.dtd"
   xmlns:inkscape="http://www.inkscape.org/namespaces/inkscape"
   version="1.1"
   id="Layer_1"
   x="0px"
   y="0px"
   width="612px"
   height="792px"
   viewBox="0 0 612 792"
   enable-background="new 0 0 612 792"
   xml:space="preserve"
   sodipodi:docname="tp-logo.svg"
   inkscape:version="0.92.2 (unknown)"><metadata
     id="metadata31"><rdf:RDF><cc:Work
         rdf:about=""><dc:format>image/svg+xml</dc:format><dc:type
           rdf:resource="http://purl.org/dc/dcmitype/StillImage" /><dc:title></dc:title></cc:Work></rdf:RDF></metadata><defs
     id="defs29" /><sodipodi:namedview
     pagecolor="#ffffff"
     bordercolor="#666666"
     borderopacity="1"
     objecttolerance="10"
     gridtolerance="10"
     guidetolerance="10"
     inkscape:pageopacity="0"
     inkscape:pageshadow="2"
     inkscape:window-width="1600"
     inkscape:window-height="850"
     id="namedview27"
     showgrid="false"
     inkscape:zoom="1"
     inkscape:cx="216.17325"
     inkscape:cy="516.46203"
     inkscape:window-x="0"
     inkscape:window-y="24"
     inkscape:window-maximized="1"
     inkscape:current-layer="Layer_1"
     inkscape:snap-intersection-paths="true" /><g
     id="g46"
     transform="translate(89,-81)"
     style="fill:none;stroke:#000000;stroke-opacity:1;stroke-width:1.1;stroke-miterlimit:4;stroke-dasharray:none;stroke-linejoin:round;paint-order:markers fill stroke"><path
       d="m 205.189,414.063 c 0,-4.199 0.033,-8.398 -0.024,-12.597 -0.014,-1.018 0.306,-1.278 1.283,-1.262 3.118,0.056 6.239,0.078 9.357,0.007 7.153,-0.164 13.017,-2.967 17.105,-8.921 3.383,-4.927 4.314,-10.47 3.396,-16.344 -0.801,-5.123 -3.034,-9.464 -7.179,-12.668 -4.667,-3.605 -10.031,-4.795 -15.795,-4.015 -7.094,0.959 -12.581,4.499 -16.2,10.744 -1.817,3.135 -2.659,6.563 -2.698,10.176 -0.034,3.119 -0.03,6.239 0.011,9.357 0.011,0.827 -0.232,1.097 -1.08,1.094 -8.438,-0.028 -16.875,-0.028 -25.313,-0.003 -0.842,0.003 -1.091,-0.254 -1.082,-1.095 0.046,-4.079 -0.103,-8.163 0.067,-12.235 0.362,-8.688 3.085,-16.658 7.899,-23.873 6.131,-9.188 14.479,-15.591 24.905,-19.227 7.761,-2.706 15.739,-3.236 23.86,-2.158 9.172,1.218 17.333,4.756 24.355,10.759 5.674,4.85 9.854,10.829 12.571,17.791 2.179,5.584 3.286,11.372 3.468,17.385 0.456,15.137 -4.906,27.828 -15.888,38.137 -6.111,5.737 -13.39,9.436 -21.522,11.422 -4.251,1.037 -8.597,1.273 -12.958,1.287 -2.319,0.008 -4.639,0.004 -6.958,0.002 -1.583,-0.002 -1.582,-0.004 -1.582,-1.528 0.002,-4.077 0.002,-8.156 0.002,-12.235 z"
       id="path4"
       inkscape:connector-curvature="0"
       style="clip-rule:evenodd;fill:none;fill-rule:evenodd;stroke:#000000;stroke-opacity:1;stroke-width:1.1;stroke-miterlimit:4;stroke-dasharray:none;stroke-linejoin:round;paint-order:markers fill stroke" /><path
       d="m 195.377,430.447 c 0,9.96 -0.014,19.92 0.021,29.879 0.004,1.009 -0.189,1.367 -1.298,1.358 -6.959,-0.057 -13.919,-0.022 -20.879,-0.035 -4.036,-0.007 -7.111,-3.086 -7.116,-7.116 -0.01,-8.199 -0.024,-16.399 0.015,-24.599 0.005,-1.063 -0.225,-1.413 -1.364,-1.405 -8.239,0.051 -16.479,0.03 -24.719,0.02 -4.064,-0.005 -6.972,-3.179 -6.926,-7.219 0.081,-6.997 0.031,-13.997 -0.038,-20.996 -0.01,-1.062 0.468,-1.053 1.225,-1.052 15.119,0.01 30.239,0.007 45.358,0.007 4.8,0 9.601,0.046 14.399,-0.03 1.185,-0.02 1.343,0.409 1.34,1.431 -0.031,9.918 -0.019,19.838 -0.018,29.757 z"
       id="path6"
       inkscape:connector-curvature="0"
       style="clip-rule:evenodd;fill:none;fill-rule:evenodd;stroke:#000000;stroke-opacity:1;stroke-width:1.1;stroke-miterlimit:4;stroke-dasharray:none;stroke-linejoin:round;paint-order:markers fill stroke" /></g></svg>